<svg version="1.1" xmlns="http://www.w3.org/2000/svg" x="0" y="0" width="256" height="256"><circle fill="#b21231" cx="128" cy="128" r="128"/><path fill="#ffffff" d="M108.3 193.3c0-3.6 0.5-6.6 1.5-9 1-2.5 2.4-4.4 4.3-6 1.8-1.5 3.9-2.6 6.4-3.3 2.4-0.7 5-1 7.8-1 2.6 0 5.2 0.3 7.5 1 2.4 0.7 4.5 1.8 6.3 3.3 1.8 1.5 3.3 3.5 4.3 6 1.1 2.5 1.6 5.5 1.6 9 0 3.4-0.5 6.3-1.6 8.7 -1.1 2.4-2.5 4.4-4.3 6 -1.8 1.6-3.9 2.7-6.3 3.5 -2.4 0.7-4.9 1.1-7.5 1.1 -2.8 0-5.4-0.4-7.8-1.1 -2.4-0.7-4.5-1.9-6.4-3.5 -1.8-1.6-3.2-3.6-4.3-6C108.8 199.6 108.3 196.7 108.3 193.3zM142.2 154.5h-27.7L108.8 43.7h39.2L142.2 154.5z"/></svg>
